<?xml version="1.0" encoding="utf-8"?>
<!-- Generator: Adobe Illustrator 22.1.0, SVG Export Plug-In . SVG Version: 6.00 Build 0)  -->
<svg version="1.1" xmlns="http://www.w3.org/2000/svg" xmlns:xlink="http://www.w3.org/1999/xlink" x="0px" y="0px"
	 viewBox="0 0 256 256" style="enable-background:new 0 0 256 256;" xml:space="preserve">
<style type="text/css">
	.st0{fill:#2CF9FE;}
	.st1{fill:#1058FB;}
</style>
<g id="Capa_1">
</g>
<g id="Capa_2">
	<g>
		<path class="st0" d="M86.8,246.9l84.5-58.2c1.7-1.1,2.6-3,2.6-5V11.6c0-2.4-2.7-3.9-4.7-2.4L84.7,67.4c-1.7,1.1-2.6,3-2.6,5v172.1
			C82,246.9,84.7,248.4,86.8,246.9z"/>
		<path class="st1" d="M134.6,107.4c4.8,4.4,7.2,10.9,7.2,19.5v33.3H126v-7.2c-3.2,5.4-9,8.1-17.8,8.1c-4.5,0-8.4-0.8-11.6-2.3
			c-3.3-1.5-5.9-3.6-7.5-6.3c-1.8-2.7-2.6-5.7-2.6-9.1c0-5.4,2.1-9.7,6.2-12.8c4.1-3.2,10.4-4.7,19-4.7h13.4c0-3.6-1.1-6.5-3.3-8.6
			c-2.3-2-5.6-3-10.1-3c-3.2,0-6.2,0.5-9.2,1.5c-3,0.9-5.6,2.3-7.7,3.9l-6-11.8c3.2-2.3,6.9-3.9,11.4-5.3c4.5-1.2,9-1.8,13.7-1.8
			C122.8,100.9,129.7,103.1,134.6,107.4z M120.1,147.6c2.3-1.4,3.8-3.3,4.8-5.9v-6h-11.6c-6.9,0-10.4,2.3-10.4,6.8
			c0,2.1,0.9,3.9,2.6,5.1c1.7,1.2,4.1,2,6.9,2C115.3,149.8,117.8,149,120.1,147.6z"/>
		<path class="st1" d="M151.4,90.9c-2-1.8-2.9-4.1-2.9-6.8c0-2.7,0.9-5,2.9-6.8c2-1.8,4.5-2.7,7.5-2.7c3.2,0,5.6,0.9,7.5,2.6
			c2,1.7,2.9,3.9,2.9,6.5c0,2.9-0.9,5.1-2.9,6.9c-2,1.8-4.5,2.7-7.5,2.7C155.9,93.6,153.4,92.7,151.4,90.9z M150.7,101.8h16.9v58.4
			h-16.9V101.8z"/>
	</g>
</g>
</svg>
