<?xml version="1.0" encoding="utf-8"?>
<!-- Generator: Adobe Illustrator 22.1.0, SVG Export Plug-In . SVG Version: 6.00 Build 0)  -->
<svg version="1.1" id="Capa_1" xmlns="http://www.w3.org/2000/svg" xmlns:xlink="http://www.w3.org/1999/xlink" x="0px" y="0px"
	 viewBox="0 0 104 56" style="enable-background:new 0 0 104 56;" xml:space="preserve">
<style type="text/css">
	.st0{clip-path:url(#SVGID_2_);}
	.st1{fill:#2CF9FE;}
	.st2{fill:#FFFFFF;}
	.st3{fill:#1058FB;}
</style>
<g>
	<defs>
		<rect id="SVGID_1_" y="0" width="104" height="56"/>
	</defs>
	<clipPath id="SVGID_2_">
		<use xlink:href="#SVGID_1_"  style="overflow:visible;"/>
	</clipPath>
	<g class="st0">
		<path class="st1" d="M83.6,55.9l19.8-13.6c0.4-0.2,0.6-0.7,0.6-1.2V0.7c0-0.6-0.6-0.9-1.1-0.6L83.1,13.8c-0.4,0.2-0.6,0.7-0.6,1.2
			v40.3C82.5,55.9,83.1,56.2,83.6,55.9z"/>
		<path class="st2" d="M11.5,22.5c1.1,0.6,1.9,1.4,2.4,2.5c0.6,1.1,0.9,2.3,0.9,3.7c0,1.4-0.3,2.7-0.9,3.7c-0.6,1.1-1.4,1.9-2.4,2.5
			c-1.1,0.6-2.2,0.9-3.5,0.9c-1.7,0-3.1-0.6-4.1-1.7v6.4H0V21.8h3.8v1.6c1-1.2,2.4-1.8,4.3-1.8C9.4,21.6,10.5,22,11.5,22.5z
			 M9.9,31.5c0.6-0.7,1-1.6,1-2.8c0-1.2-0.3-2.1-1-2.8c-0.6-0.7-1.5-1-2.5-1s-1.8,0.4-2.5,1c-0.6,0.7-1,1.6-1,2.8
			c0,1.2,0.3,2.1,1,2.8c0.6,0.7,1.5,1,2.5,1S9.2,32.1,9.9,31.5z"/>
		<path class="st2" d="M16,16.7h4v18.9h-4V16.7z"/>
		<path class="st2" d="M32.5,23.2c1.1,1,1.7,2.5,1.7,4.6v7.8h-3.7v-1.7c-0.7,1.3-2.1,1.9-4.2,1.9c-1.1,0-2-0.2-2.7-0.5
			c-0.8-0.4-1.4-0.8-1.8-1.5c-0.4-0.6-0.6-1.3-0.6-2.1c0-1.3,0.5-2.3,1.4-3c1-0.7,2.4-1.1,4.4-1.1h3.1c0-0.8-0.2-1.5-0.8-2
			c-0.5-0.5-1.3-0.7-2.4-0.7c-0.7,0-1.4,0.1-2.2,0.4c-0.7,0.2-1.3,0.5-1.8,0.9l-1.4-2.8c0.7-0.5,1.6-0.9,2.7-1.2
			c1.1-0.3,2.1-0.4,3.2-0.4C29.8,21.6,31.4,22.2,32.5,23.2z M29.2,32.6c0.5-0.3,0.9-0.8,1.1-1.4v-1.4h-2.8c-1.6,0-2.4,0.5-2.4,1.6
			c0,0.5,0.2,0.9,0.6,1.2c0.4,0.3,1,0.5,1.6,0.5C28,33.1,28.6,32.9,29.2,32.6z"/>
		<path class="st2" d="M48.7,23.2c1.1,1,1.6,2.5,1.6,4.5v7.8h-4v-7.2c0-1.1-0.2-1.9-0.7-2.4c-0.5-0.5-1.2-0.8-2-0.8
			c-1,0-1.8,0.3-2.4,0.9c-0.6,0.6-0.9,1.6-0.9,2.8v6.8h-4V21.8h3.8v1.6c0.5-0.6,1.2-1,1.9-1.3c0.8-0.3,1.6-0.5,2.6-0.5
			C46.3,21.6,47.7,22.2,48.7,23.2z"/>
		<path class="st2" d="M64.7,23.2c1.1,1,1.6,2.5,1.6,4.5v7.8h-4v-7.2c0-1.1-0.2-1.9-0.7-2.4c-0.5-0.5-1.2-0.8-2-0.8
			c-1,0-1.8,0.3-2.4,0.9c-0.6,0.6-0.9,1.6-0.9,2.8v6.8h-4V21.8h3.8v1.6c0.5-0.6,1.2-1,1.9-1.3c0.8-0.3,1.6-0.5,2.6-0.5
			C62.3,21.6,63.7,22.2,64.7,23.2z"/>
		<path class="st2" d="M68.6,19.3c-0.5-0.4-0.7-1-0.7-1.6c0-0.6,0.2-1.2,0.7-1.6c0.5-0.4,1.1-0.6,1.8-0.6c0.7,0,1.3,0.2,1.8,0.6
			c0.5,0.4,0.7,0.9,0.7,1.5c0,0.7-0.2,1.2-0.7,1.6c-0.5,0.4-1.1,0.6-1.8,0.6C69.6,19.9,69,19.7,68.6,19.3z M68.4,21.8h4v13.7h-4
			V21.8z"/>
		<path class="st2" d="M81.2,22.2h-2.3v-0.6c0-1.3,0.6-2,1.8-2c0.2,0,0.4,0,0.5,0v-3.1c-0.3,0-0.6,0-0.9,0c-1.7,0-3,0.5-3.9,1.4
			C75.4,18.8,75,20,75,21.6v0.6h-2.1v3H75v10.3h4V25.2h2.2L81.2,22.2L81.2,22.2z"/>
		<path class="st3" d="M94.8,23.2c1.1,1,1.7,2.5,1.7,4.6v7.8h-3.7v-1.7c-0.7,1.3-2.1,1.9-4.2,1.9c-1.1,0-2-0.2-2.7-0.5
			c-0.8-0.4-1.4-0.8-1.8-1.5c-0.4-0.6-0.6-1.3-0.6-2.1c0-1.3,0.5-2.3,1.4-3c1-0.7,2.4-1.1,4.4-1.1h3.1c0-0.8-0.2-1.5-0.8-2
			c-0.5-0.5-1.3-0.7-2.4-0.7c-0.7,0-1.4,0.1-2.2,0.4c-0.7,0.2-1.3,0.5-1.8,0.9l-1.4-2.8c0.7-0.5,1.6-0.9,2.7-1.2
			c1.1-0.3,2.1-0.4,3.2-0.4C92,21.6,93.7,22.2,94.8,23.2z M91.4,32.6c0.5-0.3,0.9-0.8,1.1-1.4v-1.4h-2.7c-1.6,0-2.4,0.5-2.4,1.6
			c0,0.5,0.2,0.9,0.6,1.2c0.4,0.3,1,0.5,1.6,0.5C90.3,33.1,90.9,32.9,91.4,32.6z"/>
		<path class="st3" d="M98.7,19.3c-0.5-0.4-0.7-1-0.7-1.6c0-0.6,0.2-1.2,0.7-1.6c0.5-0.4,1.1-0.6,1.8-0.6c0.7,0,1.3,0.2,1.8,0.6
			c0.5,0.4,0.7,0.9,0.7,1.5c0,0.7-0.2,1.2-0.7,1.6c-0.5,0.4-1.1,0.6-1.8,0.6C99.8,19.9,99.2,19.7,98.7,19.3z M98.6,21.8h4v13.7h-4
			V21.8z"/>
	</g>
</g>
</svg>
